<svg width="199" height="27" viewBox="0 0 199 27" fill="none" xmlns="http://www.w3.org/2000/svg">
<path d="M146.556 5.08374V7.26323H137.326V11.6222H146.556V13.8017H137.326V18.289H146.556V20.4685H135.146V5.08374H146.556Z" fill="white" fill-opacity="0.93"/>
<path d="M98.9911 5.08374L92.453 14.6349V20.4685H90.2736V14.6349L83.8638 5.08374H86.2353L91.3631 12.6452L96.6196 5.08374H98.9911Z" fill="white" fill-opacity="0.93"/>
<path d="M68.6105 5.08374V18.289H77.8408V20.4685H66.4312V5.08374H68.6105Z" fill="white" fill-opacity="0.93"/>
<path d="M121.93 5.08518V7.226H112.552C112.189 7.226 111.578 7.47954 111.29 7.70646C109.656 8.99444 110.427 11.6103 112.491 11.8002C114.183 11.9558 116.092 11.6937 117.808 11.8046C119.523 11.9155 121.112 13.1233 121.668 14.7517C122.618 17.533 120.767 20.3863 117.875 20.6658L108.265 20.6645V18.5237H117.742C118.293 18.5237 119.077 17.978 119.376 17.5267C120.411 15.963 119.336 14.0582 117.514 13.9442C115.774 13.8351 113.889 14.0738 112.158 13.9451C110.586 13.8282 109.11 12.6863 108.512 11.2443C107.337 8.40939 109.279 5.32002 112.288 5.08423L121.931 5.0855L121.93 5.08518Z" fill="white" fill-opacity="0.93"/>
<path d="M42.8191 5.08362V13.805L51.6023 5.08362H54.1939L47.8691 11.5546L54.7158 20.4684H52.159L46.3124 13.0349L46.2087 13.0707L42.8191 16.4739V20.4684H40.7143L40.6621 20.4161V5.08362H42.8191Z" fill="white" fill-opacity="0.93"/>
<path d="M168.733 5.08374C169.953 5.20037 171.228 6.0567 171.878 7.06705C173.616 9.76724 171.954 13.3336 168.793 13.7766L172.579 20.6121H170.068L166.363 13.8359H161.143V20.6121H158.991V5.08374H168.733ZM161.143 11.697H168.415C169.509 11.697 170.475 10.4588 170.468 9.4218C170.461 8.33918 169.456 7.18241 168.335 7.18241H161.143V11.697Z" fill="white" fill-opacity="0.93"/>
<path d="M182.446 20.5433L189.208 5.08374H191.791L198.422 20.5433H196.067L190.48 7.44672L184.801 20.5433H182.446Z" fill="white" fill-opacity="0.93"/>
<path d="M13.3244 6.9899C12.5102 7.39223 11.7492 7.84852 11.0518 8.35331L8.97461 5.62854C10.4207 5.78018 11.9057 6.23784 13.3244 6.9899Z" fill="white" fill-opacity="0.93"/>
<path d="M10.695 8.62067C10.4457 8.81261 10.2052 9.0107 9.97435 9.21562L6.82471 5.63291C7.36911 5.57007 7.92855 5.55573 8.4955 5.5892L10.695 8.62067Z" fill="white" fill-opacity="0.93"/>
<path d="M9.57155 9.58643C9.34682 9.80228 9.13234 10.0243 8.9281 10.2517L4.93555 6.07134C5.34812 5.92243 5.77572 5.80699 6.21494 5.72571L9.57155 9.58643Z" fill="white" fill-opacity="0.93"/>
<path d="M8.5673 10.676C8.40063 10.8796 8.24284 11.0886 8.09257 11.3011L3.23047 6.94306C3.5925 6.69442 3.97433 6.47994 4.37393 6.30029L8.5673 10.676Z" fill="white" fill-opacity="0.93"/>
<path d="M7.7975 11.7385C7.66361 11.9489 7.53861 12.1634 7.42181 12.3806L1.71338 8.33888C1.85614 8.16333 2.00847 7.99325 2.16967 7.82931C2.31721 7.67972 2.47022 7.53764 2.62801 7.40308L7.7975 11.7385Z" fill="white" fill-opacity="0.93"/>
<path d="M7.19244 12.8355C7.07974 13.0718 6.97796 13.3109 6.88643 13.5541L0.634277 10.1435C0.779771 9.79515 0.951222 9.4584 1.14931 9.13599L7.19244 12.8355Z" fill="white" fill-opacity="0.93"/>
<path d="M6.72702 14.0133C6.66828 14.1985 6.615 14.3843 6.56855 14.5721L0.0493164 12.4559C0.10123 11.9696 0.192761 11.4942 0.323228 11.0352L6.72702 14.0133Z" fill="white" fill-opacity="0.93"/>
<path d="M6.45229 15.1135C6.42633 15.2488 6.40448 15.3847 6.38603 15.522L0.0915316 14.828C0.0389351 14.4421 0.00819686 14.0575 0 13.6777L6.45229 15.1135Z" fill="white" fill-opacity="0.93"/>
<path d="M6.3187 16.1918C6.31255 16.2847 6.30777 16.3783 6.30504 16.4718C6.30367 16.5258 6.30231 16.5798 6.30231 16.6337L0.637598 17.075C0.541968 16.8024 0.456584 16.5292 0.382812 16.256L6.3187 16.1918Z" fill="white" fill-opacity="0.93"/>
<path d="M6.34454 17.6232L1.50771 19.0132C1.3711 18.7653 1.24337 18.5146 1.12451 18.2625L6.31517 17.2332C6.322 17.3636 6.33156 17.4934 6.34454 17.6232Z" fill="white" fill-opacity="0.93"/>
<path d="M6.54 18.8077L2.55086 20.6267C2.45592 20.501 2.3637 20.374 2.2749 20.2462L6.4553 18.4081C6.48057 18.542 6.50858 18.6752 6.54 18.8077Z" fill="white" fill-opacity="0.93"/>
<path d="M6.89905 19.9786L3.85665 22.1317C3.73028 22.0053 3.60733 21.8769 3.48779 21.7471L6.75629 19.5729C6.80069 19.7088 6.84782 19.8441 6.89905 19.9786Z" fill="white" fill-opacity="0.93"/>
<path d="M7.44174 21.1665L4.89935 23.0804C4.83036 23.0237 4.76069 22.965 4.69238 22.9062L7.33314 20.9581C7.36866 21.0278 7.40418 21.0975 7.44174 21.1665Z" fill="white" fill-opacity="0.93"/>
<path d="M8.23284 22.4318L6.36806 24.1443C6.32092 24.1156 6.27448 24.0855 6.22803 24.0555L8.15634 22.3246C8.18093 22.3608 8.20688 22.3963 8.23284 22.4318Z" fill="white" fill-opacity="0.93"/>
<path d="M7.6486 16.3341C8.40414 16.8381 9.17977 17.269 9.96564 17.6205L8.64453 20.7819C8.05283 19.4537 7.70667 17.9388 7.6486 16.3341Z" fill="white" fill-opacity="0.93"/>
<path d="M10.3758 17.7971C10.6667 17.917 10.9585 18.0262 11.2514 18.1237L9.72346 22.6427C9.39684 22.2027 9.10469 21.7253 8.85021 21.2176L10.3758 17.7971Z" fill="white" fill-opacity="0.93"/>
<path d="M11.774 18.2869C12.0733 18.3736 12.3728 18.4484 12.6719 18.5115L11.0479 24.0594C10.7126 23.7765 10.3988 23.4639 10.1088 23.1242L11.774 18.2869Z" fill="white" fill-opacity="0.93"/>
<path d="M13.2197 18.6129C13.4793 18.6555 13.7393 18.6876 13.9984 18.7115L12.6553 25.1012C12.2589 24.912 11.8823 24.6886 11.5269 24.4323L13.2197 18.6129Z" fill="white" fill-opacity="0.93"/>
<path d="M14.5265 18.7466C14.7757 18.7574 15.0239 18.7584 15.2704 18.7509L14.6244 25.7154C14.401 25.6796 14.1775 25.6327 13.955 25.5751C13.7516 25.5221 13.5521 25.4606 13.3566 25.3913L14.5265 18.7466Z" fill="white" fill-opacity="0.93"/>
<path d="M15.7768 18.7214C16.0379 18.7009 16.2958 18.6695 16.5522 18.6272L16.7246 25.747C16.3502 25.7951 15.9728 25.815 15.5945 25.8047L15.7768 18.7214Z" fill="white" fill-opacity="0.93"/>
<path d="M17.0289 18.5362C17.2186 18.4945 17.4061 18.4478 17.592 18.3941L19.019 25.098C18.5719 25.2962 18.1144 25.4546 17.6516 25.5711L17.0289 18.5362Z" fill="white" fill-opacity="0.93"/>
<path d="M18.1194 18.2244C18.2495 18.1793 18.3781 18.1302 18.5062 18.0775L21.0525 23.8757C20.7445 24.1143 20.4269 24.3332 20.1021 24.5302L18.1194 18.2244Z" fill="white" fill-opacity="0.93"/>
<path d="M19.1224 17.8008C19.2059 17.7597 19.2893 17.717 19.3718 17.6726C19.4192 17.6468 19.4666 17.621 19.5133 17.594L22.7278 22.2792C22.5396 22.4982 22.3457 22.7088 22.1459 22.9093L19.1224 17.8008Z" fill="white" fill-opacity="0.93"/>
<path d="M20.3484 17.0634L23.9706 20.5571C23.8242 20.7994 23.6709 21.0354 23.5121 21.2644L20.0253 17.2838C20.1348 17.2127 20.2425 17.1395 20.3484 17.0634Z" fill="white" fill-opacity="0.93"/>
<path d="M21.2745 16.3005L24.8444 18.8457C24.7831 18.9907 24.7191 19.1341 24.6529 19.2749L20.9708 16.5736C21.0741 16.4848 21.1755 16.394 21.2745 16.3005Z" fill="white" fill-opacity="0.93"/>
<path d="M22.1101 15.405L25.4959 16.9633C25.4496 17.1359 25.3999 17.3066 25.3473 17.475L21.8301 15.7315C21.9256 15.6251 22.0192 15.5167 22.1101 15.405Z" fill="white" fill-opacity="0.93"/>
<path d="M22.8697 14.3422L25.7984 15.587C25.7838 15.6751 25.7678 15.7648 25.7511 15.8533L22.7436 14.5404C22.7862 14.4748 22.8287 14.4092 22.8697 14.3422Z" fill="white" fill-opacity="0.93"/>
<path d="M23.569 13.0222L25.9844 13.7809C25.9831 13.8361 25.9803 13.8913 25.9775 13.9466L23.5144 13.142C23.5334 13.1026 23.5512 13.0624 23.569 13.0222Z" fill="white" fill-opacity="0.93"/>
<path d="M18.5783 16.5772C18.6369 15.6709 18.6223 14.7838 18.5338 13.9274L21.9321 13.4908C21.0778 14.6674 19.9389 15.7246 18.5783 16.5772Z" fill="white" fill-opacity="0.93"/>
<path d="M18.4815 13.4842C18.4399 13.1723 18.3886 12.8651 18.3265 12.5627L23.0041 11.6264C22.7863 12.1292 22.519 12.6209 22.2065 13.0952L18.4815 13.4842Z" fill="white" fill-opacity="0.93"/>
<path d="M18.2077 12.0288C18.1331 11.7262 18.0481 11.4295 17.9532 11.1389L23.5698 9.7714C23.4925 10.2032 23.3787 10.6312 23.2294 11.0522L18.2077 12.0288Z" fill="white" fill-opacity="0.93"/>
<path d="M17.7686 10.6134C17.6757 10.3673 17.5736 10.1261 17.4647 9.88976L23.6699 7.85806C23.7042 8.2959 23.6991 8.73383 23.6548 9.16971L17.7686 10.6134Z" fill="white" fill-opacity="0.93"/>
<path d="M17.2282 9.41695C17.113 9.19581 16.9897 8.98031 16.86 8.77055L23.2145 5.84777C23.2951 6.05918 23.3663 6.27614 23.4276 6.49772C23.4834 6.70029 23.5299 6.90384 23.5676 7.10777L17.2282 9.41695Z" fill="white" fill-opacity="0.93"/>
<path d="M16.583 8.34553C16.4346 8.12975 16.2785 7.92207 16.1137 7.72122L22.1934 4.01198C22.4223 4.31217 22.6282 4.62902 22.8084 4.96178L16.583 8.34553Z" fill="white" fill-opacity="0.93"/>
<path d="M15.7944 7.35256C15.6634 7.20913 15.5292 7.07009 15.3897 6.93594L20.482 2.3482C20.8772 2.63633 21.2432 2.95331 21.5754 3.29581L15.7944 7.35256Z" fill="white" fill-opacity="0.93"/>
<path d="M14.9816 6.56452C14.8774 6.47442 14.7706 6.38752 14.661 6.3029L18.4092 1.1987C18.7698 1.34612 19.1182 1.51178 19.4512 1.69458L14.9816 6.56452Z" fill="white" fill-opacity="0.93"/>
<path d="M14.1121 5.91041C14.0348 5.85863 13.9561 5.8077 13.8764 5.75854C13.8304 5.73038 13.7843 5.70222 13.7376 5.67523L16.1878 0.548821C16.4716 0.602276 16.751 0.664945 17.0245 0.737671L14.1121 5.91041Z" fill="white" fill-opacity="0.93"/>
<path d="M12.8618 5.2158L14.0764 0.331958C14.3594 0.337624 14.6404 0.352346 14.9181 0.375442L13.2142 5.38538C13.0978 5.32606 12.9807 5.26945 12.8618 5.2158Z" fill="white" fill-opacity="0.93"/>
<path d="M11.7372 4.79515L12.1565 0.430951C12.3128 0.411567 12.4689 0.395232 12.6239 0.382197L12.1256 4.9216C11.997 4.87655 11.8677 4.8342 11.7372 4.79515Z" fill="white" fill-opacity="0.93"/>
<path d="M10.5436 4.51919L10.2002 0.807871C10.3728 0.761617 10.5455 0.719345 10.7177 0.680714L10.9663 4.59842C10.8264 4.56891 10.6857 4.5421 10.5436 4.51919Z" fill="white" fill-opacity="0.93"/>
<path d="M9.24421 4.39416L8.85786 1.2354C8.94146 1.204 9.02717 1.17303 9.1122 1.14325L9.47894 4.40427C9.40084 4.40019 9.32274 4.39612 9.24421 4.39416Z" fill="white" fill-opacity="0.93"/>
<path d="M7.75237 4.44774L7.20173 1.97655C7.25015 1.95008 7.2994 1.92488 7.34865 1.89969L7.8835 4.4351C7.83985 4.4383 7.79611 4.44302 7.75237 4.44774Z" fill="white" fill-opacity="0.93"/>
</svg>
